<svg xmlns="http://www.w3.org/2000/svg" width="256" height="256"><path fill-opacity=".016" d="M0 128.004v128.004l128.25-.254 128.25-.254.254-127.75L257.008 0H0v128.004m.485.496c0 70.4.119 99.053.265 63.672.146-35.38.146-92.98 0-128C.604 29.153.485 58.1.485 128.5" fill="#1976D2" fill-rule="evenodd"/><path fill-opacity=".398" d="M88 50.373c0 .505 35.057 60.944 35.863 61.828.598.656 35.255-58.028 35.96-60.889.255-1.035-2.595-1.312-13.5-1.311l-13.823.001-2.911 5.249c-5.496 9.911-4.879 9.793-9.607 1.835L115.772 50h-13.886C94.249 50 88 50.168 88 50.373m-15.995 56.235c-18.741 6.807-28.079 27.872-20.226 45.625 3.072 6.946 10.2 14.036 17.326 17.234 5.407 2.426 7.024 2.687 14.734 2.374 10.202-.414 16.283-2.911 22.687-9.315s8.901-12.485 9.315-22.687c.313-7.71.052-9.327-2.374-14.734-3.197-7.123-10.278-14.243-17.25-17.345-6.323-2.814-18.095-3.374-24.212-1.152m82.855 1.111c-1.416 1.529-7.84 9.449-14.276 17.599-10.084 12.772-11.658 15.255-11.392 17.978.485 4.969 3.213 5.773 18.56 5.468l13.251-.264.098 6.5c.053 3.575.39 8.975.748 12 1.055 8.91 2.636 7.874 18.316-12 14.372-18.217 15.732-20.973 12.006-24.345-1.526-1.381-4.249-1.655-16.468-1.655h-14.64l-.281-11.738c-.316-13.136-1.231-14.612-5.922-9.543m-77.36 1.899c-12.167 3.006-20.074 10.654-23.058 22.302-5.608 21.889 14.898 41.065 37.032 34.631 8.279-2.407 16.67-10.798 19.077-19.077 4.231-14.557-2.571-29.614-16.079-35.59-4.287-1.896-13.493-3.125-16.972-2.266m1.75 4.111c-2.963.363-3.25.703-3.25 3.856 0 2.718-.535 3.702-2.5 4.597-2.73 1.244-3.003 2.364-1.525 6.253 1.287 3.384 2.081 3.226 4.79-.956 1.245-1.923 4.501-4.73 7.235-6.238 3.662-2.019 4.975-3.334 4.986-4.991.01-1.556-.577-2.25-1.904-2.25-1.055 0-2.518-.15-3.25-.334-.733-.184-2.795-.155-4.582.063m-17.157 10.14c-1.124 1.579-2.487 4.038-3.03 5.466-.873 2.295-.649 2.796 1.926 4.317 2.211 1.307 2.985 2.579 3.212 5.285.282 3.357.524 3.581 4.182 3.881 3.427.281 3.792.105 3.11-1.5-2.023-4.754-3.545-12.137-3.106-15.067.371-2.473.04-3.487-1.384-4.25-2.574-1.377-2.608-1.364-4.91 1.868m23.975.035c-1.137 1.598-2.068 3.173-2.068 3.5 0 .328 1.737.596 3.859.596 2.298 0 6.243 1.206 9.75 2.98 6.926 3.504 9.909 3.228 8.898-.824-.698-2.798-5.097-9.156-6.335-9.156-.4 0-1.727.701-2.949 1.557-2.012 1.409-2.434 1.409-4.446 0-3.144-2.203-4.354-1.959-6.709 1.347m-6.602 11.539c-1.917 1.917-2.261 2.941-1.595 4.75 1.256 3.416 5.54 4.65 8.099 2.334 2.573-2.328 2.584-4.973.03-7.527-2.587-2.587-3.57-2.521-6.534.443M94 134.798c0 .527.675 2.573 1.5 4.548.825 1.974 1.5 6.256 1.5 9.515 0 4.549.378 6.07 1.627 6.549 2.13.818 4.059-.873 6.536-5.729 2.113-4.142 2.11-4.15-2.248-6.661-1.065-.614-1.443-1.875-1.154-3.848.237-1.614.05-3.161-.415-3.436-1.937-1.146-7.346-1.837-7.346-.938M59.388 145.43c-.618 1.611 2.092 7.893 4.137 9.591.997.827 2.042.746 4.068-.316 2.399-1.257 3.075-1.235 5.618.183 2.823 1.574 2.952 1.542 5.497-1.376l2.606-2.988-4.362-.745c-2.399-.41-6.677-1.877-9.506-3.262-5.913-2.892-7.293-3.079-8.058-1.087m28.821 4.6c-1.811 2.164-5.322 5.124-7.804 6.578-3.415 2.002-4.437 3.16-4.208 4.768.27 1.896.948 2.124 6.303 2.124h6l.312-3.23c.226-2.343 1.131-3.714 3.297-4.994 2.437-1.439 2.873-2.224 2.372-4.27-1.219-4.987-2.722-5.221-6.272-.976M1.75 186.746c-2.108.483-2.128.191.573 8.242 1.88 5.601 2.507 6.485 4.591 6.472 1.997-.013 2.706-.874 4.104-4.988 3.232-9.513 3.2-9.182.955-9.769-1.596-.417-2.311.08-3.058 2.126-2.073 5.682-2.152 5.737-3.121 2.171-1.129-4.158-1.725-4.785-4.044-4.254m62.705 1.709C62.907 190.002 62 192.052 62 194c0 3.269 3.745 8 6.332 8 .783 0 1.983.675 2.668 1.5s2.325 1.5 3.645 1.5c2.256 0 2.313-.136.942-2.25-1.269-1.957-1.272-2.502-.023-4.191C79.02 193.886 75.212 186 69.5 186c-1.425 0-3.695 1.105-5.045 2.455m95.723-.633c-2.513 2.513-1.844 5.918 1.461 7.423 3.397 1.548 2.911 3.035-.732 2.235-2.642-.581-3.041-.414-2.74 1.15.56 2.908 5.173 4.032 8.256 2.013 3.466-2.271 3.245-4.951-.673-8.162-3.204-2.627-3.213-2.656-.604-2.08 1.903.421 2.822.125 3.273-1.051.785-2.044.629-2.19-3.138-2.944-2.313-.462-3.574-.113-5.103 1.416m49.03 5.928.292 7.75 3.5.066c4.632.088 6.639-.991 7.387-3.97.976-3.892-.907-7.596-3.862-7.596-1.858 0-2.525-.528-2.525-2 0-1.475-.667-2-2.542-2-2.529 0-2.541.039-2.25 7.75M49 190.383c0 .761-.9 1.619-2 1.907-1.1.287-2 1.057-2 1.71s.9 1.423 2 1.71c1.1.288 2 1.146 2 1.907 0 .76.675 1.383 1.5 1.383s1.5-.675 1.5-1.5c0-.833.889-1.5 2-1.5 1.163 0 2-.667 2-1.594 0-.876-.9-1.829-2-2.116-1.1-.288-2-1.146-2-1.907 0-.76-.675-1.383-1.5-1.383s-1.5.623-1.5 1.383m96 .586c0 1.339-.48 1.784-1.5 1.393-1.041-.4-1.5.069-1.5 1.531 0 1.206.641 2.107 1.5 2.107.825 0 1.5.675 1.5 1.5 0 .833.889 1.5 2 1.5s2-.667 2-1.5c0-.825.675-1.5 1.5-1.5.833 0 1.5-.889 1.5-2s-.667-2-1.5-2c-.825 0-1.5-.675-1.5-1.5 0-.833-.889-1.5-2-1.5-1.323 0-2 .667-2 1.969m-130 3.996c0 5.633 1.23 6.777 7 6.512l3.5-.161.3-5.658c.269-5.082.097-5.658-1.69-5.658-1.577 0-2.054.777-2.3 3.75-.17 2.063-.76 3.75-1.31 3.75s-1.14-1.687-1.31-3.75c-.244-2.938-.731-3.75-2.25-3.75-1.659 0-1.94.718-1.94 4.965m14.2-3.765c-.66.66-1.2 2.675-1.2 4.477 0 4.267 3.846 7.117 7.746 5.739 3.866-1.367 3.898-3.216.065-3.688l-3.311-.408 3.25-.16c2.678-.132 3.25-.565 3.25-2.46 0-3.148-1.816-4.7-5.5-4.7-1.705 0-3.64.54-4.3 1.2m38.218.153c-1.112 2.897-.011 6.147 2.082 6.147 1.618 0 2-.667 2-3.486 0-2.528-.482-3.579-1.753-3.824-.964-.186-2.012.338-2.329 1.163M78 193.777c0 5.797 2.113 8.078 7.241 7.819l4.259-.215.3-5.69c.29-5.512.22-5.691-2.25-5.691-2.308 0-2.55.379-2.55 4 0 2.2-.45 4-1 4s-1-1.8-1-4c0-3.6-.25-4-2.5-4-2.225 0-2.5.415-2.5 3.777m15-2.401c0 .859 1.166 1.668 2.75 1.908l2.75.416-2.628.15c-3.28.187-5.235 2.43-4.403 5.051.756 2.382 4.294 3.736 5.808 2.222.767-.767 1.451-.763 2.387.013 1.795 1.49 2.548-.708 2.149-6.272-.313-4.363-.314-4.364-4.563-4.671-3.237-.235-4.25.047-4.25 1.183m12.105-.003c-1.492 1.799-.37 4.575 2.284 5.647 1.932.781 1.878.859-.639.917-4.611.106-2.935 4.063 1.721 4.063.719 0 2.285-.791 3.479-1.759 2.545-2.061 1.929-4.941-1.339-6.261-2.091-.845-2.09-.854.139-.917 1.305-.036 2.25-.693 2.25-1.563 0-1.949-6.298-2.05-7.895-.127M116 191.5c0 .948 1.012 1.533 2.75 1.59 2.691.088 2.681.11-.5 1.029-2.705.781-3.25 1.425-3.25 3.842 0 3.17 3.295 5.144 5.277 3.162.76-.76 1.451-.764 2.355-.013 1.987 1.648 3.368.116 3.368-3.735 0-5.579-1.47-7.375-6.035-7.375-2.858 0-3.965.419-3.965 1.5m12 4.011c0 3.603.444 5.446 1.402 5.813 1.988.763 2.598-.174 2.598-3.991 0-2.666.4-3.333 2-3.333 1.312 0 2-.667 2-1.937 0-1.603-.691-1.928-4-1.882l-4 .055v5.275m42-1.166c0 5.475 2.062 7.467 7.5 7.244l4-.164.3-5.712c.29-5.535.221-5.713-2.25-5.713-2.308 0-2.55.379-2.55 4 0 2.2-.45 4-1 4s-1-1.8-1-4c0-3.6-.25-4-2.5-4-2.283 0-2.5.377-2.5 4.345m14 3.718c0 7.27.168 7.937 2 7.937 1.481 0 2-.667 2-2.567 0-2.065.371-2.45 1.895-1.966 2.671.847 5.105-1.973 5.105-5.916 0-4.184-1.43-5.324-6.75-5.38l-4.25-.046v7.938m13.528-7.109c-.65 1.053.136 1.523 3.972 2.371 1.58.35 1.465.467-.55.559-3.006.137-4.95 1.818-4.95 4.281 0 2.441 3.486 4.181 5.847 2.917 1.261-.675 2.202-.633 2.967.132 1.589 1.589 2.387-.944 1.999-6.35-.312-4.346-.33-4.365-4.471-4.667-2.287-.167-4.453.174-4.814.757M223 191.5c0 .948 1.012 1.533 2.75 1.59 2.691.088 2.681.11-.5 1.029-2.705.781-3.25 1.425-3.25 3.842 0 3.262 3.117 5.017 5.459 3.073.892-.74 1.578-.784 1.984-.126 1.302 2.106 3.557-.164 3.557-3.581 0-5.53-1.48-7.327-6.035-7.327-2.858 0-3.965.419-3.965 1.5m12.105-.127c-1.485 1.789-.546 4.104 2.203 5.433 2.118 1.023 2.099 1.061-.558 1.126-3.47.086-3.709 2.789-.322 3.639 3.321.834 6.345-.282 7.085-2.613.761-2.396-.072-3.837-2.865-4.965l-2.148-.866 2.25-.064c1.305-.036 2.25-.693 2.25-1.563 0-1.949-6.298-2.05-7.895-.127m11.095-.173c-.66.66-1.2 2.675-1.2 4.477 0 4.02 3.629 6.884 7.493 5.914 3.627-.91 3.152-3.384-.743-3.868-3.2-.397-3.192-.405.5-.563 3.2-.137 3.75-.497 3.75-2.46 0-3.148-1.816-4.7-5.5-4.7-1.705 0-3.64.54-4.3 1.2m-57.8 3.2c-.366.954-.171 2.229.434 2.834.8.8 1.282.627 1.766-.634.366-.954.171-2.229-.434-2.834-.8-.8-1.282-.627-1.766.634m25.6 1.1c0 1.375.45 2.5 1 2.5s1-1.125 1-2.5-.45-2.5-1-2.5-1 1.125-1 2.5" fill="#1976D2" fill-rule="evenodd"/><path fill-opacity=".55" d="m128.566 57.868-4.339 7.369-4.158-7.119L115.912 51h-6.456c-3.551 0-6.456.187-6.456.417 0 .229 2.858 5.291 6.351 11.25 3.492 5.958 8.263 14.14 10.601 18.181l4.251 7.348 1.721-2.848c.947-1.566 5.807-9.899 10.8-18.517l9.078-15.669-6.448-.331-6.448-.331-4.34 7.368M61.723 125.2c-3.359 5.181-3.389 6.318-.223 8.392 1.825 1.196 2.5 2.523 2.5 4.916 0 3.467 1.279 4.492 5.607 4.492 2.429 0 2.434-.021.787-3.205-.911-1.762-1.882-6.15-2.156-9.75-.46-6.038-1.503-9.045-3.137-9.045-.36 0-1.88 1.89-3.378 4.2m25.29-1.49-2.118 2.694 5.879 1.609c3.233.885 7.42 2.562 9.305 3.727 2.485 1.536 3.895 1.854 5.137 1.159 1.969-1.102 1.205-4.095-2.304-9.023-1.971-2.768-2.135-2.812-4.975-1.343-2.626 1.357-3.248 1.358-5.871.001-2.816-1.456-3.019-1.409-5.053 1.176m75.177 19.79c.108 7.7.355 11.188.55 7.75.196-3.437.79-6.25 1.32-6.25.531 0 2.573-2.513 4.538-5.585 1.965-3.072 4.399-6.412 5.408-7.421 1.781-1.781 1.63-1.846-5.087-2.165l-6.924-.329.195 14m-82.99-8.3c-1.878 1.878-1.41 5.539.915 7.168a4.457 4.457 0 0 0 6.253-6.253c-1.629-2.325-5.29-2.793-7.168-.915M91 146.788c0 1.662-7.062 8.203-11.056 10.241-7.272 3.709-3.381 8.214 5.634 6.522 3.049-.572 3.423-.991 3.428-3.846.005-2.503.656-3.574 2.97-4.891 2.746-1.562 2.886-1.913 1.896-4.752-1.044-2.994-2.872-5.078-2.872-3.274M210 193.4v7.4l3.75.006c4.779.007 6.25-1.242 6.25-5.306 0-3.762-2.111-5.966-4.995-5.212-1.596.418-2.005.035-2.005-1.882 0-1.472-.582-2.406-1.5-2.406-1.198 0-1.5 1.489-1.5 7.4m-207.643.573c1.94 6.413 2.372 7.058 4.557 6.806 2.014-.233 2.789-1.395 4.684-7.029l2.271-6.75h-2.347c-1.958 0-2.458.662-3.022 4-.846 5.006-1.878 5.09-3.074.25-.667-2.702-1.525-3.835-3.069-4.055l-2.143-.306 2.143 7.084m62.214-5.402C61.087 192.056 63.432 201 67.831 201c.928 0 2.25.9 2.937 2 .687 1.1 2.145 2 3.24 2 2.213 0 2.558-1.034.899-2.693-.79-.79-.79-1.657 0-3.134 1.597-2.983 1.335-8.788-.478-10.602-.865-.864-3.083-1.571-4.929-1.571s-4.064.707-4.929 1.571m95.629-.371c-2.067 2.067-1.317 4.826 1.794 6.597 3.838 2.184 3.841 3.553.006 2.99-2.399-.352-3-.075-3 1.386 0 1.466.794 1.827 4.021 1.827 3.307 0 4.222-.439 5.147-2.47 1.269-2.785.078-5-3.258-6.059-2.739-.869-2.356-2.471.59-2.471 1.556 0 2.5-.567 2.5-1.5 0-1.852-6.017-2.083-7.8-.3M49.29 191c-.288 1.1-1.146 2-1.907 2-.76 0-1.383.45-1.383 1s.675 1 1.5 1c.833 0 1.5.889 1.5 2s.667 2 1.5 2 1.5-.889 1.5-2c0-1.333.667-2 2-2 1.1 0 2-.45 2-1s-.9-1-2-1c-1.333 0-2-.667-2-2 0-1.1-.492-2-1.094-2-.601 0-1.329.9-1.616 2m96.71 0c0 1.333-.667 2-2 2-1.1 0-2 .45-2 1s.717 1 1.594 1c.876 0 1.829.9 2.116 2 .623 2.381 2.29 2.677 2.29.406 0-.876.9-1.829 2-2.116 1.1-.288 2-.921 2-1.407 0-.485-.9-.883-2-.883-1.333 0-2-.667-2-2 0-1.1-.45-2-1-2s-1 .9-1 2m-131 3.378c0 5.307 1.277 6.52 6.781 6.444l4.219-.058v-5.382c0-4.715-.248-5.382-2-5.382-1.667 0-2 .667-2 4 0 2.889-.417 4-1.5 4s-1.5-1.111-1.5-4c0-3.333-.333-4-2-4-1.695 0-2 .667-2 4.378m14.655-2.549c-3.677 4.063-.939 9.171 4.916 9.171 2.447 0 3.429-.449 3.429-1.567 0-1.11-.581-1.383-1.991-.936-1.095.348-2.558.268-3.25-.176-.818-.525-.037-.985 2.23-1.315 3.951-.573 5.01-2.864 2.49-5.385-2.153-2.152-5.775-2.056-7.824.208m37.763-.476c-1.112 2.897-.011 6.147 2.082 6.147 1.618 0 2-.667 2-3.486 0-2.528-.482-3.579-1.753-3.824-.964-.186-2.012.338-2.329 1.163m11.777 3.813.305 5.334 5.298.13 5.298.129-.298-5.12c-.225-3.858-.714-5.199-1.984-5.441-1.297-.246-1.759.542-2 3.414-.427 5.083-2.596 5.595-3 .708-.225-2.721-.828-3.901-2.119-4.146-1.587-.3-1.768.304-1.5 4.992m14.472-4.499c-1.394 1.393-.567 2.334 2.083 2.372 2.748.039 2.747.04-.572 1.482-2.571 1.117-3.249 1.955-3 3.711.279 1.963.961 2.292 5.072 2.447l4.75.178v-4.228c0-2.326-.54-4.769-1.2-5.429-1.283-1.283-6.028-1.638-7.133-.533m12.047-.048c-1.38 1.38-.693 4.377 1.286 5.613 1.1.687 2 1.621 2 2.076 0 .455-.9.541-2 .192-1.441-.457-2-.18-2 .993 0 1.269.825 1.559 3.75 1.317 2.985-.247 3.814-.759 4.063-2.512.197-1.381-.456-2.683-1.75-3.491-2.309-1.441-2.713-2.657-.813-2.446.688.077 1.475-.311 1.75-.861.575-1.149-5.207-1.959-6.286-.881m10.98.02c-1.082 1.082.309 2.359 2.615 2.4 1.762.032 1.54.322-1.131 1.482-2.571 1.117-3.249 1.955-3 3.711.279 1.963.961 2.292 5.072 2.447l4.75.178v-4.821c0-3.475-.442-4.992-1.582-5.429-2.073-.796-5.915-.777-6.724.032M128 195.5c0 4.776.255 5.5 1.94 5.5 1.519 0 2.006-.812 2.25-3.75.208-2.512.801-3.75 1.796-3.75.818 0 1.638-.787 1.824-1.75.386-2.006-1.818-2.342-3.61-.55-.933.933-1.2.933-1.2 0 0-.66-.675-1.2-1.5-1.2-1.152 0-1.5 1.278-1.5 5.5m43.195-.334.305 5.334 4.75.179 4.75.178v-5.428c0-4.058-.364-5.429-1.44-5.429-.941 0-1.547 1.297-1.75 3.75-.418 5.057-3.288 5.274-3.362.254-.037-2.512-.545-3.592-1.805-3.834-1.523-.294-1.713.361-1.448 4.996M184 198.109c0 7.224.169 7.891 2 7.891 1.467 0 2-.667 2-2.5 0-2.006.499-2.5 2.521-2.5 3.288 0 5.244-3.923 3.885-7.79-.842-2.397-1.497-2.726-5.679-2.851l-4.727-.142v7.892m14-6.609c0 .948 1.012 1.533 2.75 1.59 2.75.09 2.75.09-.393 1.001-3.297.955-4.673 2.923-3.741 5.35.387 1.008 2.031 1.408 5.468 1.33l4.916-.112v-4.13c0-2.271-.54-4.669-1.2-5.329-1.783-1.783-7.8-1.552-7.8.3m25.694-.861c-1.082 1.082.309 2.359 2.615 2.4 1.762.032 1.54.322-1.131 1.482-2.571 1.117-3.249 1.955-3 3.711.279 1.963.961 2.292 5.072 2.447l4.75.178v-4.821c0-3.475-.442-4.992-1.582-5.429-2.073-.796-5.915-.777-6.724.032m11.692.797c-.87 2.267.321 4.675 2.608 5.273 1.091.285 1.726.936 1.411 1.445-.316.51-1.435.654-2.489.319-1.352-.429-1.916-.129-1.916 1.02 0 1.269.825 1.559 3.75 1.317 3.223-.266 3.793-.684 4.058-2.974.228-1.969-.229-2.835-1.75-3.318-2.731-.866-2.662-2.489.076-1.773 1.535.402 2.005.165 1.673-.843-.673-2.048-6.669-2.424-7.421-.466m11.269.393c-3.677 4.063-.939 9.171 4.916 9.171 2.447 0 3.429-.449 3.429-1.567 0-1.11-.581-1.383-1.991-.936-1.095.348-2.558.268-3.25-.176-.818-.525-.037-.985 2.23-1.315 3.951-.573 5.01-2.864 2.49-5.385-2.153-2.152-5.775-2.056-7.824.208M32.5 193c-.34.55.11 1 1 1s1.34-.45 1-1c-.34-.55-.79-1-1-1-.21 0-.66.45-1 1m217 0c-.34.55.11 1 1 1s1.34-.45 1-1c-.34-.55-.79-1-1-1-.21 0-.66.45-1 1m-61.5 2.5c0 1.556.567 2.5 1.5 2.5s1.5-.944 1.5-2.5-.567-2.5-1.5-2.5-1.5.944-1.5 2.5m25.38-1.048c-.306.799-.266 1.924.09 2.5 1.165 1.885 2.53 1.101 2.53-1.452 0-2.711-1.718-3.398-2.62-1.048m-117.837 2.479c-.683 1.105.894 2.299 1.818 1.375.95-.951.773-2.306-.302-2.306-.518 0-1.2.419-1.516.931M119 197.5c0 .825.45 1.5 1 1.5s1-.675 1-1.5-.45-1.5-1-1.5-1 .675-1 1.5m81.543-.569c-.683 1.105.894 2.299 1.818 1.375.95-.951.773-2.306-.302-2.306-.518 0-1.2.419-1.516.931M226 197.5c0 .825.45 1.5 1 1.5s1-.675 1-1.5-.45-1.5-1-1.5-1 .675-1 1.5" fill="#1976D2" fill-rule="evenodd"/><path fill-opacity=".971" d="m86.99 123.74-2.171 2.759 4.291.733c2.36.402 6.686 1.944 9.614 3.426 6.332 3.203 8.367 2.39 6.329-2.53-2.035-4.914-4.305-6.426-7.476-4.981-2.238 1.02-3.157.942-5.55-.472-2.816-1.664-2.906-1.645-5.037 1.065m-23.707-.533c-.568.711-1.817 2.835-2.775 4.721-1.666 3.275-1.663 3.486.066 4.75.994.727 2.172 1.322 2.617 1.322.445 0 .809 1.8.809 4 0 3.899.087 4 3.475 4 3.395 0 3.45-.063 2.359-2.75-.614-1.512-1.391-5.895-1.725-9.74-.46-5.276-.999-7.064-2.201-7.293-.876-.166-2.057.279-2.625.99m16.288 12.364c-1.842 1.843-1.942 2.867-.536 5.495 1.157 2.162 4.928 2.571 6.765.734 1.837-1.837 1.428-5.608-.734-6.765-2.628-1.406-3.652-1.306-5.495.536m9.162 14.888c-1.522 1.912-4.784 4.659-7.25 6.104-2.822 1.654-4.483 3.333-4.483 4.532 0 1.662.766 1.905 6 1.905h6v-3.521c0-2.786.522-3.76 2.5-4.661 2.735-1.246 3.193-3.494 1.25-6.135-1.133-1.541-1.509-1.375-4.017 1.776M210 193.342v7.343l4.226-.093c3.657-.08 4.355-.457 5.179-2.802.655-1.861.576-3.537-.251-5.352-.978-2.145-1.67-2.525-3.679-2.021-2.143.538-2.475.283-2.475-1.898 0-1.572-.564-2.519-1.5-2.519-1.197 0-1.5 1.482-1.5 7.342M1.015 187.75c.008.412.854 3.45 1.881 6.75 1.39 4.467 2.382 6.078 3.885 6.306 1.681.256 2.386-.799 4.221-6.313 1.212-3.642 1.952-6.873 1.644-7.18-1.416-1.416-3.51.921-4.133 4.612C7.795 196.17 6 198.516 6 195.208 6 191.884 3.859 187 2.402 187c-.771 0-1.395.338-1.387.75m63.64 1.079C61.15 192.702 63.571 201 68.206 201c.852 0 2.109.675 2.794 1.5s2.16 1.5 3.277 1.5c1.917 0 1.937-.106.353-1.857-1.5-1.657-1.517-1.992-.155-3.122 2.16-1.793 1.969-8.309-.304-10.366-2.427-2.197-7.454-2.105-9.516.174m95.427-.428c-1.787 2.154-.961 4.851 1.927 6.291 3.452 1.721 3.23 3.887-.36 3.504-1.988-.211-2.722.091-2.423 1 .235.717 1.658 1.449 3.162 1.626 5.906.697 7.735-5.106 2.541-8.063-3.531-2.009-3.027-4.073.763-3.122 1.932.486 2.455.301 2.111-.746-.648-1.971-6.199-2.324-7.721-.49M50 190.941c0 1.392-.648 2.059-2 2.059-1.1 0-2 .45-2 1s.869 1 1.93 1c1.205 0 2.097.847 2.373 2.25l.443 2.25.744-2.25c.409-1.238 1.366-2.25 2.127-2.25.76 0 1.383-.45 1.383-1s-.675-1-1.5-1-1.5-.648-1.5-1.441-.45-1.719-1-2.059c-.55-.34-1 .309-1 1.441m17.529-.327C66.688 191.455 66 192.979 66 194c0 4.455 5.235 5.984 6.529 1.908 1.4-4.409-2.139-8.155-5-5.294m78.471.327c0 1.392-.648 2.059-2 2.059-1.1 0-2 .45-2 1s.9 1 2 1c1.333 0 2 .667 2 2 0 1.1.45 2 1 2s1-.9 1-2c0-1.333.667-2 2-2 1.1 0 2-.45 2-1s-.9-1-2-1-2-.648-2-1.441-.45-1.719-1-2.059c-.55-.34-1 .309-1 1.441m-129.806 4.207.306 5.352 4.75.141 4.75.142v-5.392c0-4.125-.352-5.391-1.5-5.391-.977 0-1.5.979-1.5 2.809 0 3.519-2.581 7.476-3.386 5.191-.29-.825-.66-2.815-.821-4.423-.161-1.607-.881-3.116-1.599-3.352-.989-.325-1.231.869-1 4.923m14.556-4.088c-2.158 1.282-2.364 7.185-.31 8.89 1.668 1.384 6.745 1.041 7.246-.49.188-.573-.859-1.023-2.325-1-4.127.062-4.081-2.279.052-2.646 3.412-.303 3.492-.401 2.286-2.814-1.374-2.75-4.24-3.55-6.949-1.94M79 194.378c0 5.216 1.246 6.48 6.25 6.334l3.75-.108v-5.302c0-3.952-.367-5.302-1.443-5.302-.982 0-1.54 1.356-1.75 4.25-.215 2.974-.757 4.25-1.807 4.25-1.05 0-1.592-1.276-1.807-4.25-.21-2.894-.768-4.25-1.75-4.25-1.037 0-1.443 1.231-1.443 4.378M94 191c-1.47.95-1.281 1.065 2.237 1.356 2.903.24 2.343 2.11-.794 2.654-2.333.404-2.943 1.026-2.943 3 0 2.284.393 2.502 4.75 2.631l4.75.142v-4.192c0-2.305-.54-4.731-1.2-5.391-1.44-1.44-4.731-1.537-6.8-.2m12.25-.338c-2.161.872-1.38 4.322 1.25 5.52 1.375.626 2.5 1.569 2.5 2.095 0 .526-1.125.741-2.5.478-1.676-.32-2.5-.029-2.5.884 0 1.41 3.604 1.834 6.418.754 2.439-.936 1.885-4.298-.918-5.575-2.976-1.356-3.356-3.275-.501-2.529 2.415.632 3.641-.829 1.413-1.684-1.794-.689-3.356-.672-5.162.057m11.417.005c-1.239 1.238-.678 2.311 1.083 2.071.963-.131 1.975.212 2.25.762.275.55-.625 1.151-2 1.335-3.361.45-4.329 1.554-3.54 4.04.551 1.735 1.391 2.045 5.1 1.883l4.44-.193v-4.082c0-2.246-.54-4.623-1.2-5.283-1.294-1.294-5.047-1.62-6.133-.533M128 195.5c0 4.222.348 5.5 1.5 5.5.999 0 1.5-.999 1.5-2.992 0-1.908.724-3.443 2-4.24 1.1-.687 2-1.816 2-2.509 0-1.547-1.233-1.626-2.687-.172-.783.783-1.275.783-1.759 0-1.542-2.494-2.554-.745-2.554 4.413m43.015-1.25c.021 5.777.832 6.69 5.767 6.493l4.218-.168v-5.287c0-3.94-.368-5.288-1.443-5.288-.982 0-1.54 1.356-1.75 4.25-.215 2.974-.757 4.25-1.807 4.25-1.05 0-1.592-1.276-1.807-4.25-.21-2.894-.768-4.25-1.75-4.25-1.033 0-1.439 1.207-1.428 4.25m13.932-3.589c-.029.186-.077 3.601-.107 7.589-.045 5.888.246 7.311 1.552 7.573 1.178.237 1.608-.442 1.608-2.539 0-2.444.39-2.857 2.664-2.823 2.051.03 2.831-.572 3.389-2.618 1.177-4.317-.923-7.239-5.312-7.391-2.058-.072-3.765.023-3.794.209M199 191c-1.571 1.015-.773 1.365 2.361 1.034 2.727-.289 1.485 2.294-1.435 2.984-1.754.413-2.426 1.253-2.426 3.027 0 2.251.405 2.467 4.868 2.599l4.868.143-.509-4.517c-.649-5.759-3.725-7.857-7.727-5.27m25.667-.333c-1.239 1.238-.678 2.311 1.083 2.071.963-.131 1.975.212 2.25.762.275.55-.625 1.151-2 1.335-3.361.45-4.329 1.554-3.54 4.04.551 1.735 1.391 2.045 5.1 1.883l4.44-.193v-4.082c0-2.246-.54-4.623-1.2-5.283-1.294-1.294-5.047-1.62-6.133-.533m11.533.533c-1.895 1.895-1.411 3.747 1.3 4.982 1.375.626 2.5 1.569 2.5 2.095 0 .526-1.125.741-2.5.478-1.718-.328-2.5-.033-2.5.944 0 1.031 1.03 1.337 3.75 1.111 3.007-.248 3.813-.754 4.068-2.55.229-1.607-.407-2.571-2.25-3.411-3.028-1.38-3.458-3.315-.569-2.56 2.415.632 3.641-.829 1.413-1.684-2.368-.909-3.881-.736-5.212.595m11.985-.535c-.723.3-1.747 1.683-2.276 3.075-1.467 3.858 1.256 7.473 5.326 7.069 3.836-.381 4.806-2.405 1.126-2.349-4.127.062-4.081-2.279.052-2.646 3.412-.303 3.492-.401 2.286-2.814-1.225-2.452-3.908-3.414-6.514-2.335m-215.726 2.402c-.92 1.489.147 2.298 2.061 1.564.884-.339 1.327-1.07.984-1.624-.81-1.311-2.215-1.284-3.045.06m217 0c-.92 1.489.147 2.298 2.061 1.564.884-.339 1.327-1.07.984-1.624-.81-1.311-2.215-1.284-3.045.06m-61.275 2.464c.174 1.392.766 2.531 1.316 2.531s1.142-1.139 1.316-2.531c.226-1.804-.152-2.531-1.316-2.531-1.164 0-1.542.727-1.316 2.531m24.816-.09c0 3.048 1.388 4.002 2.999 2.061 1.499-1.807.621-4.502-1.468-4.502-.957 0-1.531.916-1.531 2.441m-117.457 1.49c-.317.512-.118 1.213.441 1.559 1.193.737 3.016-.199 3.016-1.549 0-1.217-2.707-1.225-3.457-.01m23 0c-.317.512-.118 1.213.441 1.559 1.193.737 3.016-.199 3.016-1.549 0-1.217-2.707-1.225-3.457-.01M200 197.5c0 .825.675 1.5 1.5 1.5s1.5-.675 1.5-1.5-.675-1.5-1.5-1.5-1.5.675-1.5 1.5m25.543-.569c-.317.512-.118 1.213.441 1.559 1.193.737 3.016-.199 3.016-1.549 0-1.217-2.707-1.225-3.457-.01" fill="#1976D2" fill-rule="evenodd"/></svg>